<?xml version="1.0" encoding="utf-8"?>
<!-- Svg Vector Icons : http://www.onlinewebfonts.com/icon -->
<!DOCTYPE svg PUBLIC "-//W3C//DTD SVG 1.1//EN" "http://www.w3.org/Graphics/SVG/1.1/DTD/svg11.dtd">
<svg version="1.1" xmlns="http://www.w3.org/2000/svg" xmlns:xlink="http://www.w3.org/1999/xlink" x="0px" y="0px" viewBox="0 0 1000 1000" enable-background="new 0 0 1000 1000" xml:space="preserve">
<metadata> Svg Vector Icons : http://www.onlinewebfonts.com/icon </metadata>
<g><path d="M246,889.4c-23.6,0-42.6-16.4-42.6-36.7V204.8c0-20.3,19.1-36.7,42.6-36.7h120.7V86.5H209c-27.4,0-85,33.9-85,74.7v734.9c0,54,57.5,74.7,85,74.7h224.6c-18.8-16.8-36.6-51.4-65.8-81.5H246L246,889.4z M829.9,161.3c0-37.6-57.5-74.7-85-74.7H595.8V168H697c23.5,0,53.6,16.4,53.6,25.8v279.8c23.7-21.3,56.4-39.2,79.4-56.3V161.3L829.9,161.3z M750.5,837.8v14.9c0,20.3-18.8,36.7-42.4,36.7h-5.3c-12.3,14.7-29.6,63.9-42.9,81.5H745c27.4,0,85-11.2,85-74.7V791C816,802.5,776,818.7,750.5,837.8L750.5,837.8z M472,711.6l78.1,140.5c0,0,148.4-306,312.3-368.5c-6.2,82.8-8.7,163.9,13.6,184.2C828,688.2,667.2,810.9,561,990c-99.9-97.3-99.9-119.1-232.6-186.3C411.1,750.7,472,711.6,472,711.6L472,711.6z M666.3,194h-95.8V77.7c0-37.4-41.3-67.7-78.6-67.7h-19.2C435.3,10,394,40.3,394,77.7V194H292.5c-11.5,0-20.8,9.3-20.8,20.8v71.3h415.4v-71.3C687.1,203.4,677.8,194,666.3,194L666.3,194z M479.4,168.8c-23.1,0-41.9-18.7-41.9-41.9c0-23.1,18.7-41.9,41.9-41.9c23.1,0,41.9,18.7,41.9,41.9C521.3,150.1,502.5,168.8,479.4,168.8L479.4,168.8z"/></g>
</svg>