<?xml version="1.0" encoding="UTF-8" standalone="no"?>
<!DOCTYPE svg PUBLIC "-//W3C//DTD SVG 1.1//EN" "http://www.w3.org/Graphics/SVG/1.1/DTD/svg11.dtd">
<svg version="1.1" xmlns="http://www.w3.org/2000/svg" xmlns:xlink="http://www.w3.org/1999/xlink" preserveAspectRatio="xMidYMid meet" viewBox="0 0 640 640" width="640" height="640"><defs><path d="M452.07 384.95C475.44 384.68 487.24 372.77 487.62 349.34C487.95 326.02 498.11 308.39 518.14 296.46C538.23 284.47 542.58 268.35 531.14 247.93C519.76 227.57 519.76 207.2 531.14 186.78C542.58 166.42 538.26 150.32 518.14 138.34C498.11 126.32 487.92 108.72 487.62 85.29C487.24 61.97 475.44 50.06 452.07 49.79C428.69 49.46 411.06 39.25 399.08 19.21C387.09 -0.88 370.97 -5.23 350.6 6.21C330.24 17.6 309.82 17.6 289.45 6.21C269.06 -5.2 252.94 -0.88 240.95 19.21C228.99 39.28 211.34 49.49 187.99 49.79C164.67 50.06 152.81 61.97 152.49 85.29C152.1 108.72 141.95 126.29 121.91 138.34C101.82 150.32 97.42 166.39 108.91 186.78C120.35 207.2 120.35 227.57 108.91 247.93C97.42 268.35 101.79 284.5 121.91 296.46C141.95 308.39 152.13 326.02 152.49 349.34C152.81 372.74 164.67 384.68 187.99 384.95C211.36 385.23 228.99 395.49 240.98 415.53C252.97 435.62 269.09 439.97 289.45 428.47C309.82 417.2 330.24 417.2 350.6 428.47C370.97 439.94 387.11 435.62 399.08 415.53C411.06 395.49 428.69 385.23 452.07 384.95ZM192.15 217.33C192.15 146.71 249.41 89.45 320.08 89.45C390.7 89.45 447.96 146.71 447.96 217.33C447.96 288 390.7 345.26 320.08 345.26C249.41 345.26 192.15 288 192.15 217.33Z" id="e2IVbaBe2W"></path><path d="M158.07 392.26C151.67 404.84 119.67 467.73 62.08 580.93L139.05 572.28C164.58 610.71 178.77 632.06 181.61 636.33C181.61 636.33 270.29 451.3 270.29 452.53C224.34 451.38 242.62 404.93 185.93 403.7C161.35 403.7 163.64 394.55 158.07 392.26Z" id="aimdUsw12"></path><path d="M408.82 437.92C390.37 457.6 367.33 453.74 367.33 453.74C374.54 466.15 410.63 528.24 475.58 640L502.21 571.02L577.92 580.9L480.73 399.65C443.48 416.15 419.51 428.9 408.82 437.92Z" id="a2Gk4I5Lr3"></path><path d="M320.03 134.91L293.23 189.11L233.31 197.87L276.62 240.1L266.41 299.83L320.03 271.66L373.65 299.83L363.44 240.1L406.74 197.87L346.8 189.11L320.03 134.91Z" id="b7JYUBb42"></path><path d="M20.62 18.33L619.41 621.67" id="eLp7ABFlR"></path><path d="M3.95 636.82L619.41 18.33" id="b2dWIAoFF8"></path></defs><g><g><g><use xlink:href="#e2IVbaBe2W" opacity="1" fill="#000000" fill-opacity="1"></use><g><use xlink:href="#e2IVbaBe2W" opacity="1" fill-opacity="0" stroke="#000000" stroke-width="1" stroke-opacity="0"></use></g></g><g><use xlink:href="#aimdUsw12" opacity="1" fill="#000000" fill-opacity="1"></use><g><use xlink:href="#aimdUsw12" opacity="1" fill-opacity="0" stroke="#000000" stroke-width="1" stroke-opacity="0"></use></g></g><g><use xlink:href="#a2Gk4I5Lr3" opacity="1" fill="#000000" fill-opacity="1"></use><g><use xlink:href="#a2Gk4I5Lr3" opacity="1" fill-opacity="0" stroke="#000000" stroke-width="1" stroke-opacity="0"></use></g></g><g><use xlink:href="#b7JYUBb42" opacity="1" fill="#000000" fill-opacity="1"></use><g><use xlink:href="#b7JYUBb42" opacity="1" fill-opacity="0" stroke="#000000" stroke-width="1" stroke-opacity="0"></use></g></g><g><g><use xlink:href="#eLp7ABFlR" opacity="1" fill-opacity="0" stroke="#000000" stroke-width="40" stroke-opacity="1"></use></g></g><g><use xlink:href="#b2dWIAoFF8" opacity="1" fill="#bd1a1a" fill-opacity="1"></use><g><use xlink:href="#b2dWIAoFF8" opacity="1" fill-opacity="0" stroke="#000000" stroke-width="40" stroke-opacity="1"></use></g></g></g></g></svg>